<svg width="66" height="65" viewBox="0 0 66 65" fill="none" xmlns="http://www.w3.org/2000/svg">
<rect width="66" height="65" rx="10" fill="#F6F8FF"/>
<path d="M30.25 34.6351L31.8215 36.3951L35.75 31.9951" stroke="#5F6FFF" stroke-width="2" stroke-linecap="round" stroke-linejoin="round"/>
<path d="M22 31.9943C22 26.8088 22 24.2161 23.6109 22.6052C24.9758 21.2403 27.0456 21.0318 30.8 21M44 31.9943C44 26.8088 44 24.2161 42.389 22.6052C41.0242 21.2403 38.9544 21.0318 35.2 21" stroke="#5F6FFF" stroke-width="2" stroke-linecap="round"/>
<path d="M30.8 42.9945C27.7197 42.9945 26.1796 42.9945 25.0031 42.395C23.9682 41.8678 23.1268 41.0264 22.5995 39.9915C22 38.815 22 37.2749 22 34.1945C22 31.1142 22 29.5741 22.5995 28.3976C23.1268 27.3627 23.9682 26.5213 25.0031 25.994C26.1796 25.3945 27.7197 25.3945 30.8 25.3945H35.2C38.2803 25.3945 39.8204 25.3945 40.997 25.994C42.0319 26.5213 42.8733 27.3627 43.4005 28.3976C44 29.5741 44 31.1142 44 34.1945C44 37.2749 44 38.815 43.4005 39.9915C42.8733 41.0264 42.0319 41.8678 40.997 42.395C39.8204 42.9945 38.2803 42.9945 35.2 42.9945" stroke="#5F6FFF" stroke-width="2" stroke-linecap="round"/>
</svg>
