<svg width="66" height="65" viewBox="0 0 66 65" fill="none" xmlns="http://www.w3.org/2000/svg">
<rect width="66" height="65" rx="10" fill="#F6F8FF"/>
<path d="M45 31.2894V43.3947C45.0012 43.5146 44.9659 43.632 44.8989 43.7315C44.8319 43.8309 44.7363 43.9076 44.6247 43.9515C44.5527 43.9849 44.4741 44.0014 44.3947 43.9999C44.3137 43.9999 44.2335 43.9838 44.1587 43.9526C44.0839 43.9215 44.016 43.8758 43.9589 43.8184L41.7679 41.5789H31.079C29.9553 41.5789 28.8776 41.1325 28.0831 40.338C27.2885 39.5434 26.8421 38.4657 26.8421 37.3421H35.921C37.5263 37.3421 39.0658 36.7044 40.2009 35.5693C41.336 34.4342 41.9737 32.8947 41.9737 31.2894V27.2342C42.8465 27.4958 43.612 28.0314 44.157 28.7617C44.702 29.492 44.9975 30.3782 45 31.2894ZM40.1579 31.2894V25.2368C40.1579 24.1132 39.7115 23.0355 38.9169 22.2409C38.1224 21.4464 37.0447 21 35.921 21H26.2369C25.1132 21 24.0355 21.4464 23.241 22.2409C22.4464 23.0355 22 24.1132 22 25.2368V37.3421C21.9988 37.462 22.0341 37.5794 22.1011 37.6788C22.1681 37.7783 22.2637 37.855 22.3753 37.8989C22.4473 37.9322 22.5259 37.9488 22.6053 37.9473C22.6863 37.9473 22.7665 37.9312 22.8413 37.9C22.9161 37.8689 22.984 37.8232 23.0411 37.7657L25.2321 35.5263H35.921C37.0447 35.5263 38.1224 35.0799 38.9169 34.2853C39.7115 33.4908 40.1579 32.4131 40.1579 31.2894Z" fill="#5F6FFF"/>
</svg>
