<svg width="58" height="58" viewBox="0 0 58 58" fill="none" xmlns="http://www.w3.org/2000/svg">
<g filter="url(#filter0_d_8593_1246)">
<path d="M29 49C41.7025 49 52 38.7025 52 26C52 13.2975 41.7025 3 29 3C16.2975 3 6 13.2975 6 26C6 38.7025 16.2975 49 29 49Z" fill="white"/>
</g>
<path d="M30.8078 35.7731H26.5807V26.7731H24.4688V23.2991H26.5807V21.2181C26.5807 18.3891 27.7687 16.7051 31.1617 16.7051H33.9827V20.1751H32.2207C30.9017 20.1751 30.8137 20.6591 30.8137 21.5641L30.8078 23.2991H34.0028L33.6287 26.7691H30.8078V35.7691V35.7731Z" fill="#5044E5"/>
<defs>
<filter id="filter0_d_8593_1246" x="0" y="0" width="58" height="58" filterUnits="userSpaceOnUse" color-interpolation-filters="sRGB">
<feFlood flood-opacity="0" result="BackgroundImageFix"/>
<feColorMatrix in="SourceAlpha" type="matrix" values="0 0 0 0 0 0 0 0 0 0 0 0 0 0 0 0 0 0 127 0" result="hardAlpha"/>
<feOffset dy="3"/>
<feGaussianBlur stdDeviation="3"/>
<feColorMatrix type="matrix" values="0 0 0 0 0 0 0 0 0 0 0 0 0 0 0 0 0 0 0.161 0"/>
<feBlend mode="normal" in2="BackgroundImageFix" result="effect1_dropShadow_8593_1246"/>
<feBlend mode="normal" in="SourceGraphic" in2="effect1_dropShadow_8593_1246" result="shape"/>
</filter>
</defs>
</svg>
