<svg width="59" height="59" viewBox="0 0 59 59" fill="none" xmlns="http://www.w3.org/2000/svg">
<g filter="url(#filter0_d_8593_1254)">
<path d="M29.239 49.478C42.0735 49.478 52.478 39.0735 52.478 26.239C52.478 13.4045 42.0735 3 29.239 3C16.4045 3 6 13.4045 6 26.239C6 39.0735 16.4045 49.478 29.239 49.478Z" fill="white"/>
</g>
<path d="M25.2874 33.389C23.3426 33.3991 21.471 32.6475 20.0734 31.295C19.3908 30.6415 18.8476 29.8566 18.4765 28.9876C18.1054 28.1186 17.9141 27.1834 17.9141 26.2385C17.9141 25.2935 18.1054 24.3583 18.4765 23.4893C18.8476 22.6203 19.3908 21.8354 20.0734 21.182C21.436 19.877 23.2384 19.1304 25.1246 19.0896C27.0109 19.0489 28.8438 19.717 30.2614 20.962L28.0894 23.026C27.2994 22.3796 26.3102 22.0263 25.2894 22.026C24.1552 22.0097 23.0609 22.4442 22.2467 23.2341C21.4326 24.024 20.9653 25.1048 20.9474 26.239C20.9664 27.3721 21.4339 28.4515 22.2474 29.2405C23.061 30.0295 24.1542 30.4637 25.2874 30.448C26.1575 30.4517 27.0087 30.1952 27.7319 29.7114C28.455 29.2276 29.0169 28.5386 29.3454 27.733H25.1944V24.746H32.4944C32.75 25.9176 32.7004 27.1353 32.3501 28.2823C31.9999 29.4292 31.3609 30.4669 30.4944 31.296C29.0984 32.6464 27.2297 33.3975 25.2874 33.389ZM38.5874 29.27H36.7204V26.782H34.1544V24.972H36.7204V22.483H38.5874V24.972H41.1534V26.782H38.5874V29.271V29.27Z" fill="#5044E5"/>
<defs>
<filter id="filter0_d_8593_1254" x="0" y="0" width="58.4766" height="58.478" filterUnits="userSpaceOnUse" color-interpolation-filters="sRGB">
<feFlood flood-opacity="0" result="BackgroundImageFix"/>
<feColorMatrix in="SourceAlpha" type="matrix" values="0 0 0 0 0 0 0 0 0 0 0 0 0 0 0 0 0 0 127 0" result="hardAlpha"/>
<feOffset dy="3"/>
<feGaussianBlur stdDeviation="3"/>
<feColorMatrix type="matrix" values="0 0 0 0 0 0 0 0 0 0 0 0 0 0 0 0 0 0 0.161 0"/>
<feBlend mode="normal" in2="BackgroundImageFix" result="effect1_dropShadow_8593_1254"/>
<feBlend mode="normal" in="SourceGraphic" in2="effect1_dropShadow_8593_1254" result="shape"/>
</filter>
</defs>
</svg>
