<svg width="24" height="24" viewBox="0 0 24 24" fill="none" xmlns="http://www.w3.org/2000/svg">
<path d="M9.25 14.6351L10.8215 16.3951L14.75 11.9951" stroke="#1C274C" stroke-width="2" stroke-linecap="round" stroke-linejoin="round"/>
<path d="M1 11.9943C1 6.80881 1 4.21609 2.61092 2.60518C3.97582 1.24027 6.04556 1.03183 9.8 1M23 11.9943C23 6.80881 23 4.21609 21.389 2.60518C20.0242 1.24027 17.9544 1.03183 14.2 1" stroke="#1C274C" stroke-width="2" stroke-linecap="round"/>
<path d="M9.8 22.9945C6.71971 22.9945 5.17957 22.9945 4.00306 22.395C2.96816 21.8678 2.12676 21.0264 1.59947 19.9915C1 18.815 1 17.2749 1 14.1945C1 11.1142 1 9.5741 1.59947 8.39759C2.12676 7.3627 2.96816 6.52129 4.00306 5.994C5.17957 5.39453 6.71971 5.39453 9.8 5.39453H14.2C17.2803 5.39453 18.8204 5.39453 19.997 5.994C21.0319 6.52129 21.8733 7.3627 22.4005 8.39759C23 9.5741 23 11.1142 23 14.1945C23 17.2749 23 18.815 22.4005 19.9915C21.8733 21.0264 21.0319 21.8678 19.997 22.395C18.8204 22.9945 17.2803 22.9945 14.2 22.9945" stroke="#1C274C" stroke-width="2" stroke-linecap="round"/>
</svg>
