<svg width="206" height="43" viewBox="0 0 206 43" fill="none" xmlns="http://www.w3.org/2000/svg">
<path d="M62.5586 34.374C60.8133 34.374 59.1813 34.0567 57.6626 33.422C56.1666 32.7873 54.852 31.9147 53.7186 30.804C52.5853 29.6707 51.7013 28.356 51.0666 26.86C50.4546 25.3413 50.1486 23.7207 50.1486 21.998C50.1486 20.2753 50.4546 18.6773 51.0666 17.204C51.7013 15.708 52.574 14.4047 53.6846 13.294C54.818 12.1607 56.1326 11.288 57.6286 10.676C59.1246 10.0413 60.7453 9.724 62.4906 9.724C64.236 9.724 65.8566 10.0413 67.3526 10.676C68.8486 11.288 70.1633 12.1607 71.2966 13.294C72.43 14.4047 73.3026 15.708 73.9146 17.204C74.5493 18.7 74.8666 20.3093 74.8666 22.032C74.8666 23.7547 74.5493 25.364 73.9146 26.86C73.3026 28.356 72.43 29.6707 71.2966 30.804C70.186 31.9147 68.8826 32.7873 67.3866 33.422C65.8906 34.0567 64.2813 34.374 62.5586 34.374ZM73.3366 35.768L62.3886 24.82L65.1766 21.998L76.1586 32.98L73.3366 35.768ZM62.4906 30.056C64.0093 30.056 65.3353 29.716 66.4686 29.036C67.6246 28.356 68.52 27.4153 69.1546 26.214C69.812 25.0127 70.1406 23.6073 70.1406 21.998C70.1406 20.8193 69.948 19.7427 69.5626 18.768C69.2 17.7933 68.6786 16.9547 67.9986 16.252C67.3186 15.5267 66.514 14.9713 65.5846 14.586C64.6553 14.2007 63.624 14.008 62.4906 14.008C60.9946 14.008 59.6686 14.348 58.5126 15.028C57.3793 15.6853 56.484 16.6147 55.8266 17.816C55.192 19.0173 54.8746 20.4113 54.8746 21.998C54.8746 23.1993 55.056 24.2987 55.4186 25.296C55.804 26.2933 56.3253 27.1433 56.9826 27.846C57.6626 28.5487 58.4673 29.0927 59.3966 29.478C60.3486 29.8633 61.38 30.056 62.4906 30.056ZM85.7572 34.34C84.3066 34.34 83.0146 34.034 81.8813 33.422C80.7706 32.81 79.8979 31.96 79.2633 30.872C78.6286 29.784 78.3113 28.526 78.3113 27.098V17.578H82.7993V26.996C82.7993 27.676 82.9126 28.2653 83.1393 28.764C83.3659 29.24 83.7059 29.6027 84.1593 29.852C84.6126 30.1013 85.1453 30.226 85.7572 30.226C86.6866 30.226 87.4119 29.9427 87.9333 29.376C88.4546 28.8093 88.7153 28.016 88.7153 26.996V17.578H93.1693V27.098C93.1693 28.5487 92.8519 29.818 92.2173 30.906C91.6053 31.994 90.7326 32.844 89.5993 33.456C88.4886 34.0453 87.2079 34.34 85.7572 34.34ZM96.7161 34V17.578H101.204V34H96.7161ZM98.9601 14.926C98.2348 14.926 97.6341 14.688 97.1581 14.212C96.6821 13.7133 96.4441 13.1013 96.4441 12.376C96.4441 11.6733 96.6821 11.0727 97.1581 10.574C97.6341 10.0753 98.2348 9.826 98.9601 9.826C99.7081 9.826 100.309 10.0753 100.762 10.574C101.238 11.0727 101.476 11.6733 101.476 12.376C101.476 13.1013 101.238 13.7133 100.762 14.212C100.309 14.688 99.7081 14.926 98.9601 14.926ZM112.902 34.34C111.224 34.34 109.717 33.966 108.38 33.218C107.042 32.47 105.988 31.45 105.218 30.158C104.447 28.866 104.062 27.4153 104.062 25.806C104.062 24.174 104.447 22.712 105.218 21.42C105.988 20.128 107.042 19.108 108.38 18.36C109.74 17.5893 111.247 17.204 112.902 17.204C114.194 17.204 115.384 17.442 116.472 17.918C117.56 18.394 118.5 19.074 119.294 19.958L116.438 22.848C116.007 22.372 115.486 22.0093 114.874 21.76C114.284 21.5107 113.627 21.386 112.902 21.386C112.086 21.386 111.349 21.5787 110.692 21.964C110.057 22.3267 109.547 22.8367 109.162 23.494C108.799 24.1287 108.618 24.888 108.618 25.772C108.618 26.6333 108.799 27.404 109.162 28.084C109.547 28.7413 110.057 29.2627 110.692 29.648C111.349 30.0107 112.086 30.192 112.902 30.192C113.65 30.192 114.318 30.0673 114.908 29.818C115.52 29.546 116.041 29.1607 116.472 28.662L119.362 31.552C118.523 32.4587 117.56 33.15 116.472 33.626C115.384 34.102 114.194 34.34 112.902 34.34ZM132.356 34L125.998 25.534L132.322 17.578H137.456L130.044 26.554L130.214 24.378L137.796 34H132.356ZM121.884 34V9.418H126.338V34H121.884ZM148.959 34.34C147.78 34.34 146.715 34.0907 145.763 33.592C144.811 33.0933 144.052 32.4133 143.485 31.552C142.918 30.6907 142.612 29.7273 142.567 28.662V22.814C142.612 21.7487 142.918 20.7967 143.485 19.958C144.074 19.0967 144.845 18.428 145.797 17.952C146.749 17.476 147.803 17.238 148.959 17.238C150.478 17.238 151.838 17.612 153.039 18.36C154.24 19.108 155.181 20.128 155.861 21.42C156.564 22.712 156.915 24.174 156.915 25.806C156.915 27.4153 156.564 28.866 155.861 30.158C155.181 31.45 154.24 32.47 153.039 33.218C151.838 33.966 150.478 34.34 148.959 34.34ZM139.847 34V9.418H144.301V21.624L143.553 25.568L144.267 29.58V34H139.847ZM148.211 30.226C149.027 30.226 149.741 30.0447 150.353 29.682C150.988 29.2967 151.475 28.7753 151.815 28.118C152.178 27.438 152.359 26.656 152.359 25.772C152.359 24.9107 152.178 24.1513 151.815 23.494C151.475 22.814 150.988 22.2927 150.353 21.93C149.718 21.5447 148.993 21.352 148.177 21.352C147.361 21.352 146.636 21.5447 146.001 21.93C145.389 22.2927 144.902 22.814 144.539 23.494C144.199 24.1513 144.029 24.9107 144.029 25.772C144.029 26.656 144.199 27.438 144.539 28.118C144.902 28.7753 145.4 29.2967 146.035 29.682C146.67 30.0447 147.395 30.226 148.211 30.226ZM159.835 34V9.418H164.289V34H159.835ZM175.954 34.34C174.299 34.34 172.803 33.966 171.466 33.218C170.151 32.4473 169.097 31.416 168.304 30.124C167.533 28.8093 167.148 27.3473 167.148 25.738C167.148 24.1287 167.533 22.6893 168.304 21.42C169.074 20.128 170.128 19.108 171.466 18.36C172.803 17.5893 174.288 17.204 175.92 17.204C177.597 17.204 179.093 17.5893 180.408 18.36C181.745 19.108 182.799 20.128 183.57 21.42C184.34 22.6893 184.726 24.1287 184.726 25.738C184.726 27.3473 184.34 28.8093 183.57 30.124C182.799 31.416 181.745 32.4473 180.408 33.218C179.093 33.966 177.608 34.34 175.954 34.34ZM175.92 30.192C176.758 30.192 177.495 30.0107 178.13 29.648C178.787 29.2627 179.286 28.7413 179.626 28.084C179.988 27.404 180.17 26.6333 180.17 25.772C180.17 24.9107 179.988 24.1513 179.626 23.494C179.263 22.8367 178.764 22.3267 178.13 21.964C177.495 21.5787 176.758 21.386 175.92 21.386C175.104 21.386 174.378 21.5787 173.744 21.964C173.109 22.3267 172.61 22.8367 172.248 23.494C171.885 24.1513 171.704 24.9107 171.704 25.772C171.704 26.6333 171.885 27.404 172.248 28.084C172.61 28.7413 173.109 29.2627 173.744 29.648C174.378 30.0107 175.104 30.192 175.92 30.192ZM194.461 41.276C192.716 41.276 191.174 40.9587 189.837 40.324C188.5 39.712 187.434 38.8393 186.641 37.706L189.463 34.884C190.098 35.632 190.8 36.1987 191.571 36.584C192.364 36.992 193.316 37.196 194.427 37.196C195.81 37.196 196.898 36.8447 197.691 36.142C198.507 35.4393 198.915 34.4647 198.915 33.218V29.104L199.663 25.5L198.949 21.896V17.578H203.369V33.15C203.369 34.782 202.984 36.1987 202.213 37.4C201.465 38.624 200.422 39.576 199.085 40.256C197.748 40.936 196.206 41.276 194.461 41.276ZM194.257 33.558C192.784 33.558 191.458 33.2067 190.279 32.504C189.1 31.7787 188.171 30.7927 187.491 29.546C186.834 28.2993 186.505 26.9053 186.505 25.364C186.505 23.8227 186.834 22.44 187.491 21.216C188.171 19.992 189.1 19.0287 190.279 18.326C191.458 17.6007 192.784 17.238 194.257 17.238C195.481 17.238 196.558 17.476 197.487 17.952C198.439 18.428 199.187 19.0853 199.731 19.924C200.275 20.74 200.57 21.7033 200.615 22.814V27.982C200.57 29.07 200.264 30.0447 199.697 30.906C199.153 31.7447 198.405 32.402 197.453 32.878C196.524 33.3313 195.458 33.558 194.257 33.558ZM195.141 29.512C195.957 29.512 196.66 29.342 197.249 29.002C197.861 28.6393 198.337 28.152 198.677 27.54C199.017 26.9053 199.187 26.1913 199.187 25.398C199.187 24.582 199.017 23.868 198.677 23.256C198.337 22.644 197.861 22.168 197.249 21.828C196.66 21.4653 195.957 21.284 195.141 21.284C194.325 21.284 193.611 21.4653 192.999 21.828C192.387 22.168 191.911 22.6553 191.571 23.29C191.231 23.902 191.061 24.6047 191.061 25.398C191.061 26.1687 191.231 26.8713 191.571 27.506C191.911 28.118 192.387 28.6053 192.999 28.968C193.611 29.3307 194.325 29.512 195.141 29.512Z" fill="white"/>
<path d="M19.9994 0.21875C31.0454 0.21875 39.9994 9.17275 39.9994 20.2188V34.2188C39.9994 35.81 39.3673 37.3362 38.2421 38.4614C37.1169 39.5866 35.5907 40.2187 33.9994 40.2188H20.9994V31.4447C20.9994 29.4427 21.1214 27.3687 22.1714 25.6647C22.9232 24.4436 23.9288 23.3984 25.12 22.6C26.3112 21.8017 27.6602 21.2689 29.0754 21.0378L29.4584 20.9757C29.6163 20.9218 29.7534 20.8198 29.8505 20.684C29.9475 20.5483 29.9997 20.3856 29.9997 20.2188C29.9997 20.0519 29.9475 19.8892 29.8505 19.7535C29.7534 19.6177 29.6163 19.5157 29.4584 19.4618L29.0754 19.3997C27.0076 19.062 25.0981 18.0832 23.6166 16.6016C22.135 15.1201 21.1562 13.2106 20.8184 11.1427L20.7564 10.7598C20.7025 10.6019 20.6005 10.4648 20.4647 10.3677C20.329 10.2707 20.1663 10.2185 19.9994 10.2185C19.8326 10.2185 19.6699 10.2707 19.5341 10.3677C19.3984 10.4648 19.2964 10.6019 19.2424 10.7598L19.1804 11.1427C18.9494 12.558 18.4166 13.907 17.6182 15.0983C16.8199 16.2895 15.7746 17.2951 14.5534 18.0467C12.8494 19.0967 10.7754 19.2188 8.77344 19.2188H0.0234375C0.546438 8.63775 9.28944 0.21875 19.9994 0.21875Z" fill="white"/>
<path d="M0 21.2188H8.774C10.776 21.2188 12.85 21.3408 14.554 22.3908C15.886 23.2115 17.0072 24.3328 17.828 25.6647C18.878 27.3687 19 29.4427 19 31.4447V40.2188H6C4.4087 40.2187 2.88258 39.5866 1.75736 38.4614C0.632141 37.3362 0 35.81 0 34.2188L0 21.2188ZM40 2.21875C40 2.74918 39.7893 3.25789 39.4142 3.63296C39.0391 4.00804 38.5304 4.21875 38 4.21875C37.4696 4.21875 36.9609 4.00804 36.5858 3.63296C36.2107 3.25789 36 2.74918 36 2.21875C36 1.68832 36.2107 1.17961 36.5858 0.804536C36.9609 0.429464 37.4696 0.21875 38 0.21875C38.5304 0.21875 39.0391 0.429464 39.4142 0.804536C39.7893 1.17961 40 1.68832 40 2.21875Z" fill="white"/>
</svg>
