<svg width="120" height="70" viewBox="0 0 120 70" fill="none" xmlns="http://www.w3.org/2000/svg">
<rect width="120" height="70" rx="7" fill="#F8F8F8"/>
<rect x="0.5" y="0.5" width="119" height="69" rx="6.5" stroke="black" stroke-opacity="0.2" stroke-dasharray="2 2"/>
<path d="M74.1503 28.2963C73.7048 24.7433 70.4639 20.8055 67.7299 18.4933C66.8805 17.775 65.709 17.2246 64.0945 17.0394C62.1138 16.853 60.6338 17.3507 59.552 18.0598C57.9066 19.1386 54.8515 20.002 53.1156 20.9281V20.9281V20.9281C51.2721 21.9767 49.5889 24.386 48.1818 25.9728C47.5324 26.7052 47.0469 27.7133 47.0469 29.0904C47.1409 33.0566 51.4384 33.2736 51.826 33.2851C51.8466 33.2857 51.8642 33.2857 51.8849 33.2857H57.0838C58.296 33.2857 59.2787 32.303 59.2787 31.0908V29.5647C59.2787 29.1953 58.9792 28.8958 58.6098 28.8958V28.8958C58.0006 28.8958 57.7085 28.1478 58.1565 27.7349L59.8163 26.2055C60.4098 25.6586 61.3237 25.6586 61.9173 26.2055L63.577 27.7349C64.0251 28.1478 63.733 28.8958 63.1237 28.8958V28.8958C62.7543 28.8958 62.4548 29.1953 62.4548 29.5647V31.0908C62.4548 32.303 63.4375 33.2857 64.6498 33.2857H69.1744C69.1766 33.2857 69.1764 33.2857 69.1787 33.2857C69.2507 33.2855 73.5659 33.2571 74.1761 29.3384C74.2014 28.9658 74.1908 28.619 74.1503 28.2963Z" fill="#BEC4D5"/>
<path d="M38.158 39.2242V44.9572C38.158 45.7632 38.353 46.3612 38.743 46.7512C39.1417 47.1412 39.692 47.3362 40.394 47.3362C41.0873 47.3362 41.629 47.1412 42.019 46.7512C42.4177 46.3612 42.617 45.7632 42.617 44.9572V39.2242H43.8V44.9442C43.8 45.6982 43.6483 46.3352 43.345 46.8552C43.0417 47.3665 42.63 47.7478 42.11 47.9992C41.5987 48.2505 41.0223 48.3762 40.381 48.3762C39.7397 48.3762 39.159 48.2505 38.639 47.9992C38.1277 47.7478 37.7203 47.3665 37.417 46.8552C37.1223 46.3352 36.975 45.6982 36.975 44.9442V39.2242H38.158ZM46.9565 42.4742C47.1905 42.0668 47.5371 41.7288 47.9965 41.4602C48.4645 41.1828 49.0061 41.0442 49.6215 41.0442C50.2541 41.0442 50.8261 41.1958 51.3375 41.4992C51.8575 41.8025 52.2648 42.2315 52.5595 42.7862C52.8541 43.3322 53.0015 43.9692 53.0015 44.6972C53.0015 45.4165 52.8541 46.0578 52.5595 46.6212C52.2648 47.1845 51.8575 47.6222 51.3375 47.9342C50.8261 48.2462 50.2541 48.4022 49.6215 48.4022C49.0148 48.4022 48.4775 48.2678 48.0095 47.9992C47.5501 47.7218 47.1991 47.3795 46.9565 46.9722V51.6652H45.7735V41.1612H46.9565V42.4742ZM51.7925 44.6972C51.7925 44.1598 51.6841 43.6918 51.4675 43.2932C51.2508 42.8945 50.9561 42.5912 50.5835 42.3832C50.2195 42.1752 49.8165 42.0712 49.3745 42.0712C48.9411 42.0712 48.5381 42.1795 48.1655 42.3962C47.8015 42.6042 47.5068 42.9118 47.2815 43.3192C47.0648 43.7178 46.9565 44.1815 46.9565 44.7102C46.9565 45.2475 47.0648 45.7198 47.2815 46.1272C47.5068 46.5258 47.8015 46.8335 48.1655 47.0502C48.5381 47.2582 48.9411 47.3622 49.3745 47.3622C49.8165 47.3622 50.2195 47.2582 50.5835 47.0502C50.9561 46.8335 51.2508 46.5258 51.4675 46.1272C51.6841 45.7198 51.7925 45.2432 51.7925 44.6972ZM55.7416 38.6652V48.2852H54.5586V38.6652H55.7416ZM60.8648 48.4022C60.1975 48.4022 59.5908 48.2505 59.0448 47.9472C58.5075 47.6438 58.0828 47.2148 57.7708 46.6602C57.4675 46.0968 57.3158 45.4468 57.3158 44.7102C57.3158 43.9822 57.4718 43.3408 57.7838 42.7862C58.1045 42.2228 58.5378 41.7938 59.0838 41.4992C59.6298 41.1958 60.2408 41.0442 60.9168 41.0442C61.5928 41.0442 62.2038 41.1958 62.7498 41.4992C63.2958 41.7938 63.7248 42.2185 64.0368 42.7732C64.3575 43.3278 64.5178 43.9735 64.5178 44.7102C64.5178 45.4468 64.3532 46.0968 64.0238 46.6602C63.7032 47.2148 63.2655 47.6438 62.7108 47.9472C62.1562 48.2505 61.5408 48.4022 60.8648 48.4022ZM60.8648 47.3622C61.2895 47.3622 61.6882 47.2625 62.0608 47.0632C62.4335 46.8638 62.7325 46.5648 62.9578 46.1662C63.1918 45.7675 63.3088 45.2822 63.3088 44.7102C63.3088 44.1382 63.1962 43.6528 62.9708 43.2542C62.7455 42.8555 62.4508 42.5608 62.0868 42.3702C61.7228 42.1708 61.3285 42.0712 60.9038 42.0712C60.4705 42.0712 60.0718 42.1708 59.7078 42.3702C59.3525 42.5608 59.0665 42.8555 58.8498 43.2542C58.6332 43.6528 58.5248 44.1382 58.5248 44.7102C58.5248 45.2908 58.6288 45.7805 58.8368 46.1792C59.0535 46.5778 59.3395 46.8768 59.6948 47.0762C60.0502 47.2668 60.4402 47.3622 60.8648 47.3622ZM65.6313 44.6972C65.6313 43.9692 65.7786 43.3322 66.0733 42.7862C66.3679 42.2315 66.7709 41.8025 67.2823 41.4992C67.8023 41.1958 68.3786 41.0442 69.0113 41.0442C69.6353 41.0442 70.1769 41.1785 70.6363 41.4472C71.0956 41.7158 71.4379 42.0538 71.6633 42.4612V41.1612H72.8593V48.2852H71.6633V46.9592C71.4293 47.3752 71.0783 47.7218 70.6103 47.9992C70.1509 48.2678 69.6136 48.4022 68.9983 48.4022C68.3656 48.4022 67.7936 48.2462 67.2823 47.9342C66.7709 47.6222 66.3679 47.1845 66.0733 46.6212C65.7786 46.0578 65.6313 45.4165 65.6313 44.6972ZM71.6633 44.7102C71.6633 44.1728 71.5549 43.7048 71.3383 43.3062C71.1216 42.9075 70.8269 42.6042 70.4543 42.3962C70.0903 42.1795 69.6873 42.0712 69.2453 42.0712C68.8033 42.0712 68.4003 42.1752 68.0363 42.3832C67.6723 42.5912 67.3819 42.8945 67.1653 43.2932C66.9486 43.6918 66.8403 44.1598 66.8403 44.6972C66.8403 45.2432 66.9486 45.7198 67.1653 46.1272C67.3819 46.5258 67.6723 46.8335 68.0363 47.0502C68.4003 47.2582 68.8033 47.3622 69.2453 47.3622C69.6873 47.3622 70.0903 47.2582 70.4543 47.0502C70.8269 46.8335 71.1216 46.5258 71.3383 46.1272C71.5549 45.7198 71.6633 45.2475 71.6633 44.7102ZM74.4164 44.6972C74.4164 43.9692 74.5638 43.3322 74.8584 42.7862C75.1531 42.2315 75.5561 41.8025 76.0674 41.4992C76.5874 41.1958 77.1681 41.0442 77.8094 41.0442C78.3641 41.0442 78.8798 41.1742 79.3564 41.4342C79.8331 41.6855 80.1971 42.0192 80.4484 42.4352V38.6652H81.6444V48.2852H80.4484V46.9462C80.2144 47.3708 79.8678 47.7218 79.4084 47.9992C78.9491 48.2678 78.4118 48.4022 77.7964 48.4022C77.1638 48.4022 76.5874 48.2462 76.0674 47.9342C75.5561 47.6222 75.1531 47.1845 74.8584 46.6212C74.5638 46.0578 74.4164 45.4165 74.4164 44.6972ZM80.4484 44.7102C80.4484 44.1728 80.3401 43.7048 80.1234 43.3062C79.9068 42.9075 79.6121 42.6042 79.2394 42.3962C78.8754 42.1795 78.4724 42.0712 78.0304 42.0712C77.5884 42.0712 77.1854 42.1752 76.8214 42.3832C76.4574 42.5912 76.1671 42.8945 75.9504 43.2932C75.7338 43.6918 75.6254 44.1598 75.6254 44.6972C75.6254 45.2432 75.7338 45.7198 75.9504 46.1272C76.1671 46.5258 76.4574 46.8335 76.8214 47.0502C77.1854 47.2582 77.5884 47.3622 78.0304 47.3622C78.4724 47.3622 78.8754 47.2582 79.2394 47.0502C79.6121 46.8335 79.9068 46.5258 80.1234 46.1272C80.3401 45.7198 80.4484 45.2475 80.4484 44.7102Z" fill="#7B7B7B"/>
</svg>
